# xmcd CD database file
#
# Track frame offsets:
#	150
#	15857
#	32895
#	46852
#	62915
#	84242
#	102202
#	117112
#	125427
#	138975
#
# Disc length: 2028 seconds
#
# Revision: 0
# Processed by: cddbd v1.5.2PL0 Copyright (c) Steve Scherf et al.
# Submitted via: CDex 1.51
#
DISCID=7507ea0a
DTITLE=Garrison - On The Road To Memphis
DYEAR=1996
DGENRE=Country
TTITLE0=Memphis
TTITLE1=Chevy Van
TTITLE2=He's Back And I'm Blue
TTITLE3=Call On Me
TTITLE4=Rock'n'Roll Dream
TTITLE5=Indian Man
TTITLE6=L.A.
TTITLE7=Junkfoot Yankee
TTITLE8=On The Road
TTITLE9=Shine On Me
EXTD=YEAR: 1996
EXTT0=
EXTT1=
EXTT2=
EXTT3=
EXTT4=
EXTT5=
EXTT6=
EXTT7=
EXTT8=
EXTT9=
PLAYORDER=
